<?xml version="1.0" encoding="UTF-8" standalone="no"?><!DOCTYPE svg PUBLIC "-//W3C//DTD SVG 1.1//EN" "http://www.w3.org/Graphics/SVG/1.1/DTD/svg11.dtd"><svg width="100%" height="100%" viewBox="0 0 2078 864" version="1.1" xmlns="http://www.w3.org/2000/svg" xmlns:xlink="http://www.w3.org/1999/xlink" xml:space="preserve" xmlns:serif="http://www.serif.com/" style="fill-rule:evenodd;clip-rule:evenodd;stroke-linejoin:round;stroke-miterlimit:2;"><rect id="Artboard1" x="0" y="0" width="2077.31" height="863.642" style="fill:none;"/><g><g><g transform="matrix(118.755,0,0,118.755,1481.31,620.601)"></g><text x="594.572px" y="620.601px" style="font-family:'PathwayExtreme28pt-Regular', 'Pathway Extreme 28pt';font-size:118.755px;fill:#153a67;">L<tspan x="697.057px 810.943px 937.773px 1059.38px 1192.26px 1270.52px 1403.53px " y="620.601px 620.601px 620.601px 620.601px 620.601px 620.601px 620.601px ">EARNING</tspan></text><g><path d="M260.98,111.38c42.036,0 76.589,8.519 103.658,25.557c27.069,17.037 40.922,42.275 41.559,75.713l-0,5.732l-98.882,0l0,-1.91c0,-9.554 -3.503,-17.516 -10.509,-23.885c-7.006,-6.369 -17.674,-9.553 -32.005,-9.553c-14.012,-0 -24.76,2.07 -32.244,6.209c-7.484,4.14 -11.226,9.236 -11.226,15.286c0,8.599 5.096,14.968 15.286,19.108c10.191,4.14 26.592,8.439 49.202,12.898c26.432,5.413 48.167,11.066 65.205,16.957c17.037,5.892 31.925,15.525 44.663,28.901c12.739,13.375 19.267,31.527 19.586,54.456c-0,38.852 -13.137,67.672 -39.41,86.461c-26.272,18.789 -61.382,28.184 -105.33,28.184c-51.272,-0 -91.158,-8.598 -119.66,-25.795c-28.502,-17.197 -42.754,-47.61 -42.754,-91.239l99.837,0c0,16.56 4.299,27.627 12.898,33.2c8.598,5.573 21.973,8.359 40.126,8.359c13.375,0 24.441,-1.433 33.199,-4.299c8.757,-2.866 13.136,-8.757 13.136,-17.674c0,-7.962 -4.856,-13.933 -14.569,-17.914c-9.713,-3.98 -25.557,-8.2 -47.53,-12.658c-26.751,-5.733 -48.884,-11.704 -66.399,-17.914c-17.515,-6.21 -32.801,-16.48 -45.858,-30.81c-13.057,-14.331 -19.585,-33.757 -19.585,-58.278c0,-35.986 13.933,-62.498 41.798,-79.535c27.865,-17.038 63.134,-25.557 105.808,-25.557Z" style="fill:#153a67;fill-rule:nonzero;"/><path d="M591.539,187.81c44.266,0 79.058,11.226 104.375,33.677c25.317,22.452 37.976,55.173 37.976,98.165c0,42.992 -12.659,75.714 -37.976,98.165c-25.317,22.451 -60.109,33.677 -104.375,33.677c-44.265,-0 -78.977,-11.146 -104.136,-33.438c-25.158,-22.292 -37.737,-55.093 -37.737,-98.404c0,-43.31 12.579,-76.111 37.737,-98.403c25.159,-22.293 59.871,-33.439 104.136,-33.439Zm0,64.488c-31.209,0 -46.813,17.993 -46.813,53.979l-0,27.228c-0,35.667 15.604,53.501 46.813,53.501c31.528,0 47.291,-17.834 47.291,-53.501l0,-27.228c0,-35.986 -15.763,-53.979 -47.291,-53.979Z" style="fill:#153a67;fill-rule:nonzero;"/><path d="M947.894,193.543l0,64.487l-53.501,0l0,96.016c0,11.464 1.911,19.824 5.732,25.078c3.822,5.255 10.828,7.882 21.019,7.882l26.75,0l0,55.89c-7.643,2.547 -17.515,4.617 -29.616,6.21c-12.102,1.592 -22.611,2.388 -31.528,2.388c-28.024,-0 -49.6,-5.095 -64.726,-15.286c-15.127,-10.191 -22.691,-27.547 -22.691,-52.068l0,-126.11l-35.348,0l-0,-64.487l39.17,-0l20.54,-76.43l70.698,-0l0,76.43l53.501,-0Z" style="fill:#153a67;fill-rule:nonzero;"/><path d="M1122.25,187.81c46.177,0 81.446,10.828 105.808,32.483c24.362,21.655 36.543,54.775 36.543,99.359l0,16.242l-189.164,-0c-0,18.152 4.06,31.845 12.181,41.081c8.121,9.235 20.938,13.853 38.454,13.853c15.923,-0 27.626,-3.344 35.11,-10.032c7.483,-6.687 11.225,-15.604 11.225,-26.75l92.194,-0c0,30.572 -11.624,54.456 -34.871,71.653c-23.248,17.197 -57.163,25.795 -101.748,25.795c-46.813,-0 -83.117,-10.907 -108.912,-32.722c-25.795,-21.814 -38.693,-54.854 -38.693,-99.12c-0,-43.31 12.579,-76.111 37.737,-98.403c25.158,-22.293 59.87,-33.439 104.136,-33.439Zm3.822,60.667c-29.935,-0 -46.654,14.171 -50.158,42.514l92.672,-0c-0,-13.057 -3.742,-23.407 -11.226,-31.05c-7.484,-7.643 -17.913,-11.464 -31.288,-11.464Z" style="fill:#153a67;fill-rule:nonzero;"/><path d="M1463.8,191.333c7.324,-0 13.853,0.875 19.585,2.627c5.732,1.752 8.598,2.787 8.598,3.105l0,79.774l-30.572,-0c-19.744,-0 -33.995,5.095 -42.753,15.286c-8.757,10.19 -13.136,25.317 -13.136,45.38l-0,112.257l-95.06,-0l0,-252.219l77.863,-0l6.21,38.215c5.732,-14.649 14.808,-25.716 27.228,-33.2c12.42,-7.483 26.432,-11.225 42.037,-11.225Z" style="fill:#153a67;fill-rule:nonzero;"/><g><path d="M1525.9,449.762c0,-0 0,-155.762 0,-222.474c0,-16.428 13.318,-29.745 29.746,-29.745c11.331,-0 24.237,-0 35.569,-0c16.427,-0 29.745,13.317 29.745,29.745c-0,66.712 -0,222.474 -0,222.474l-95.06,-0Z" style="fill:#153a67;fill-rule:nonzero;"/><rect x="1525.9" y="121.113" width="95.06" height="53.865" style="fill:#153a67;fill-rule:nonzero;"/></g><path d="M1806.3,187.81c38.533,0 69.901,6.449 94.104,19.347c24.203,12.897 36.304,33.836 36.304,62.816l0,98.403c0,5.414 1.274,9.873 3.822,13.376c2.548,3.503 6.369,5.254 11.464,5.254l17.197,0l0,54.934c-0.955,0.637 -3.423,1.672 -7.404,3.105c-3.981,1.433 -9.633,2.866 -16.958,4.299c-7.324,1.433 -15.764,2.15 -25.317,2.15c-18.471,-0 -33.677,-2.787 -45.619,-8.36c-11.943,-5.573 -20.143,-13.295 -24.601,-23.167c-12.102,9.553 -25.636,17.196 -40.604,22.929c-14.967,5.732 -32.483,8.598 -52.545,8.598c-59.234,-0 -88.85,-23.566 -88.85,-70.698c-0,-24.521 6.608,-43.231 19.824,-56.128c13.216,-12.898 32.244,-21.735 57.083,-26.512c24.84,-4.777 57.323,-7.165 97.449,-7.165l-0,-12.42c-0,-9.872 -3.424,-17.356 -10.271,-22.451c-6.847,-5.096 -15.684,-7.643 -26.511,-7.643c-9.873,-0 -18.391,1.751 -25.557,5.254c-7.165,3.503 -10.748,9.076 -10.748,16.719l0,1.911l-93.626,0c-0.319,-1.592 -0.478,-3.821 -0.478,-6.688c-0,-23.884 11.385,-42.832 34.155,-56.844c22.769,-14.012 55.332,-21.019 97.687,-21.019Zm35.349,148.084c-27.069,-0 -47.053,2.945 -59.95,8.837c-12.898,5.891 -19.347,13.773 -19.347,23.645c0,15.923 10.828,23.885 32.483,23.885c12.42,-0 23.327,-3.344 32.722,-10.032c9.394,-6.687 14.092,-14.967 14.092,-24.839l-0,-21.496Z" style="fill:#153a67;fill-rule:nonzero;"/></g><g transform="matrix(61.0735,0,0,61.0735,1740.76,751.773)"></g><text x="414.484px" y="751.773px" style="font-family:'PathwayExtreme28pt-MediumItalic', 'Pathway Extreme 28pt';font-weight:500;font-style:italic;font-size:61.074px;fill:#153a67;">Unlock Your Potential. Learn Without Limits</text></g></g></svg>